<svg width="178" height="178" viewBox="0 0 178 178" fill="none" xmlns="http://www.w3.org/2000/svg">
<path d="M177.609 89.0564C177.609 137.995 137.936 177.668 88.9978 177.668C40.0593 177.668 0.386719 137.995 0.386719 89.0564C0.386719 40.1179 40.0593 0.445312 88.9978 0.445312C137.936 0.445312 177.609 40.1179 177.609 89.0564ZM2.50811 89.0564C2.50811 136.823 41.2309 175.546 88.9978 175.546C136.765 175.546 175.488 136.823 175.488 89.0564C175.488 41.2895 136.765 2.5667 88.9978 2.5667C41.2309 2.5667 2.50811 41.2895 2.50811 89.0564Z" fill="#28C2DF" fill-opacity="0.75"/>
<path d="M144.508 115.844V60.7338C144.508 57.771 142.927 55.0333 140.361 53.5518L123.199 43.3979L120.315 41.6914L117.931 44.09L72.949 91.3657V65.4672H85.3557V58.0582H52.8282V65.4672H65.2349V103.247L120.825 45.7714L136.715 55.0033C139.281 56.4847 140.862 59.2225 140.862 62.1853V113.563C140.862 116.526 139.281 119.264 136.715 120.745L92.2206 146.434C89.6547 147.916 86.4934 147.916 83.9275 146.434L46.6145 124.894L44.2031 127.38L84.3415 150.58C86.9074 152.062 90.0687 152.062 92.6346 150.58L140.361 123.026C142.927 121.544 144.508 118.806 144.508 115.844Z" fill="#FFF9FB"/>
<path d="M32.4688 115.844V60.7347C32.4688 57.7718 34.0494 55.0341 36.6153 53.5527L84.3418 25.9978C86.9076 24.5164 90.0689 24.5164 92.6348 25.9978L120.314 41.6923L117.939 44.0991L92.2209 29.315C89.655 27.8336 86.4937 27.8336 83.9279 29.315L39.4333 55.004C36.8674 56.4854 35.2867 59.2231 35.2867 62.1859V113.564C35.2867 116.527 36.8674 119.264 39.4333 120.746L49.2664 126.433L46.9811 129.005L36.6153 123.026C34.0494 121.545 32.4688 118.807 32.4688 115.844Z" fill="#28C2DF" fill-opacity="0.75"/>
<path d="M115.606 90.7974H96.5215V72.2751L46.6147 124.895L49.2726 126.439L88.9882 85.4763V117.768H96.7022V98.2063H115.606V117.768H123.32V72.2751H115.606V90.7974Z" fill="#28C2DF" fill-opacity="0.75"/>
</svg>
