<svg width="74" height="83" viewBox="0 0 74 83" fill="none" xmlns="http://www.w3.org/2000/svg">
<path d="M73.3335 59.536V23.4641C73.3335 21.5248 72.2989 19.7328 70.6194 18.7632L59.3859 12.1169L57.498 11L55.938 12.57L26.4952 43.5141V26.5623H34.6159V21.7128H13.3252V26.5623H21.446V51.2909L57.8323 13.6705L68.2331 19.7132C69.9126 20.6829 70.9472 22.4749 70.9472 24.4142V58.0434C70.9472 59.9827 69.9126 61.7747 68.2331 62.7443L39.1093 79.5589C37.4298 80.5285 35.3606 80.5285 33.6811 79.5589L9.25805 65.46L7.67969 67.087L33.9521 82.2728C35.6316 83.2425 37.7008 83.2425 39.3803 82.2729L70.6194 64.2369C72.2989 63.2673 73.3335 61.4753 73.3335 59.536Z" fill="#FFF9FB"/>
<path d="M0 59.536V23.4641C0 21.5248 1.0346 19.7328 2.71409 18.7632L33.9532 0.727237C35.6327 -0.242413 37.7019 -0.242412 39.3814 0.727238L57.499 11L55.9444 12.5754L39.1105 2.89851C37.431 1.92886 35.3618 1.92886 33.6823 2.89851L4.5586 19.7131C2.87911 20.6828 1.84451 22.4747 1.84451 24.414V58.0432C1.84451 59.9825 2.87911 61.7745 4.5586 62.7442L10.9948 66.4665L9.49902 68.15L2.71409 64.2369C1.03461 63.2673 0 61.4753 0 59.536Z" fill="#28C2DF"/>
<path d="M54.4169 43.1415H41.9254V31.0178L9.25917 65.4603L10.9989 66.4703L36.9946 39.6586V60.7953H42.0437V47.991H54.4169V60.7953H59.4661V31.0178H54.4169V43.1415Z" fill="#28C2DF"/>
</svg>
